<svg width="89" height="34" viewBox="0 0 89 34" fill="none" xmlns="http://www.w3.org/2000/svg">
<path d="M6.75781 0.5V27.9287H22.4678V33.5H0.5V0.5H6.75781ZM44.6553 9.64258C46.0537 9.64258 47.2516 10.1498 48.2197 11.1514L48.4043 11.335C49.3011 12.2666 49.7558 13.401 49.7559 14.7139V33.5H33.1865C31.7885 33.5 30.5699 33.0156 29.5566 32.0566L29.5479 32.0488L29.5391 32.04C28.5739 31.033 28.086 29.8206 28.0859 28.4287V23.8574C28.0859 22.465 28.5749 21.2696 29.5479 20.3027L29.7402 20.1201C30.7131 19.2356 31.8686 18.7861 33.1865 18.7861H44.1553V14.5615H28.8975V9.64258H44.6553ZM78.9775 0.5V6.07129H69.4473V33.5H63.1895V6.07129H53.6592V0.5H78.9775ZM88.5 9.64258V33.5H82.8994V9.64258H88.5ZM33.6865 28.582H44.1553V23.6387H33.6865V28.582ZM88.5 0.5V6.72461H82.8994V0.5H88.5Z" fill="#DA2C43" stroke="#DA2C43"/>
</svg>
