<svg width="101" height="85" viewBox="0 0 101 85" fill="none" xmlns="http://www.w3.org/2000/svg">
<path d="M50.4346 11.1719C51.9967 9.60979 54.5297 9.60978 56.0918 11.1719C57.6536 12.734 57.6537 15.2671 56.0918 16.8291L48.3555 24.5645L59.917 36.127L82.627 13.418C84.189 11.8559 86.7221 11.8559 88.2842 13.418C89.8462 14.9801 89.8462 17.5131 88.2842 19.0752L65.5742 41.7842L89.1992 65.4092C90.7612 66.9713 90.7613 69.5043 89.1992 71.0664C87.6371 72.6283 85.104 72.6284 83.542 71.0664L59.917 47.4414L48.6045 58.7539L57.2568 67.4053C58.8189 68.9674 58.8189 71.5004 57.2568 73.0625C55.6947 74.6245 53.1617 74.6246 51.5996 73.0625L42.9482 64.4102L34.0479 73.3115C32.4858 74.8736 29.9527 74.8736 28.3906 73.3115C26.8289 71.7495 26.829 69.2173 28.3906 67.6553L37.291 58.7539L25.7285 47.1904L16.8281 56.0918C15.266 57.6539 12.734 57.6539 11.1719 56.0918C9.6098 54.5297 9.60979 51.9977 11.1719 50.4355L20.0723 41.5342L12.3369 33.7988C10.7748 32.2368 10.7749 29.7047 12.3369 28.1426C13.899 26.5805 16.4311 26.5805 17.9932 28.1426L25.7285 35.8779L37.041 24.5645L29.3057 16.8291C27.7437 15.267 27.7437 12.7339 29.3057 11.1719C30.8677 9.6098 33.4008 9.60986 34.9629 11.1719L42.6982 18.9072L50.4346 11.1719ZM31.3848 41.5342L42.9482 53.0967L54.2607 41.7842L42.6982 30.2217L31.3848 41.5342Z" fill="#DA2C43"/>
</svg>
